<?xml version="1.0" encoding="utf-8"?>
<svg viewBox="0 0 171 32" width="171px" height="32px" fill="none" xmlns="http://www.w3.org/2000/svg">
  <defs>
    <radialGradient gradientUnits="userSpaceOnUse" cx="114.987" cy="16.315" r="53.65" id="gradient-1">
      <stop offset="0" style="stop-color: rgb(28.235% 27.059% 82.353%)"/>
      <stop offset="1" style="stop-color: rgb(0% 13.88% 65.944%)"/>
    </radialGradient>
  </defs>
  <path d="M0 16C0 7.16344 7.16344 0 16 0H37C45.8366 0 53 7.16344 53 16V32H16C7.16344 32 0 24.8366 0 16Z" fill="#4845D2" class="ccustom" transform="matrix(1, 0, 0, 1, 0, -1.7763568394002505e-15)"/>
  <rect x="6" y="6" width="41" height="20" rx="10" fill="#A5B4FC" class="ccompli2" transform="matrix(1, 0, 0, 1, 0, -1.7763568394002505e-15)"/>
  <circle cx="16" cy="16" r="5" fill="#000000" transform="matrix(1, 0, 0, 1, 0, -1.7763568394002505e-15)"/>
  <circle cx="14" cy="14" r="1" fill="#ffffff" transform="matrix(1, 0, 0, 1, 0, -1.7763568394002505e-15)"/>
  <circle cx="38" cy="16" r="5" fill="#000000" transform="matrix(1, 0, 0, 1, 0, -1.7763568394002505e-15)"/>
  <circle cx="36" cy="14" r="1" fill="#ffffff" transform="matrix(1, 0, 0, 1, 0, -1.7763568394002505e-15)"/>
  <text style="fill: url('#gradient-1'); font-family: Elephant; font-size: 13px; font-weight: 700; stroke-miterlimit: 3.62; stroke-width: 4px; white-space: pre;" x="61.543" y="20.652" transform="matrix(1, 0, 0, 1, 0, -1.7763568394002505e-15)">AI Interviewer</text>
</svg>